<?xml version="1.0" encoding="UTF-8"?><svg id="_決済" xmlns="http://www.w3.org/2000/svg" viewBox="0 0 30 30"><defs><style>.cls-1{fill:#fff;}</style></defs><path class="cls-1" d="m15,30C6.73,30,0,23.27,0,15S6.73,0,15,0s15,6.73,15,15-6.73,15-15,15Zm0-28C7.83,2,2,7.83,2,15s5.83,13,13,13,13-5.83,13-13S22.17,2,15,2Z"/><path class="cls-1" d="m15.55,9.1c1.7.13,2.9,1.07,3.33,2.74l-1.3.38c-.27-1.26-.94-1.97-2.03-2.06v4.27c2.61.69,3.54,1.7,3.54,3.46,0,2.03-1.52,3.11-3.54,3.23v1.33h-.77v-1.33c-1.94-.11-3.2-1.01-3.76-3.04l1.26-.45c.35,1.6,1.12,2.27,2.5,2.43v-4.56c-2.46-.61-3.36-1.68-3.36-3.33,0-1.84,1.5-2.99,3.36-3.07v-1.25h.77v1.25Zm-.77,1.06c-1.25.06-2.08.78-2.08,1.97,0,1.12.48,1.74,2.08,2.14v-4.11Zm.77,9.91c1.46-.1,2.22-.9,2.22-2.14,0-1.17-.61-1.76-2.22-2.26v4.4Z"/></svg>