<?xml version="1.0" encoding="UTF-8"?><svg id="_決済" xmlns="http://www.w3.org/2000/svg" viewBox="0 0 24.73 18.96"><defs><style>.cls-1{fill:#fff;}</style></defs><g id="g7gGVi"><g><path class="cls-1" d="m10.93,16.08c-3.03,0-6.05,0-9.08,0-1.28,0-1.85-.56-1.85-1.84C0,10.11,0,5.99,0,1.86,0,.58.58,0,1.84,0c6.05,0,12.11,0,18.16,0,1.28,0,1.84.57,1.84,1.85,0,4.12,0,8.25,0,12.37,0,1.31-.55,1.86-1.89,1.86-3.01,0-6.01,0-9.02,0Zm9.05-1.84V1.85H1.86v12.39h18.13Z"/><path class="cls-1" d="m22.92,2.94c1.13-.1,1.8.52,1.81,1.63.01,2.15,0,4.3,0,6.45,0,2.04,0,4.08,0,6.12,0,1.23-.59,1.82-1.81,1.82-6.1,0-12.19,0-18.29,0-1.16,0-1.8-.67-1.68-1.8.25,0,.51,0,.77,0,5.81,0,11.62,0,17.43,0,1.39,0,1.76-.37,1.76-1.74,0-3.9,0-7.81,0-11.71,0-.26,0-.51,0-.76Z"/><path class="cls-1" d="m15.94,9.42c1.04-1.06,2-2.05,3.05-3.13v6.95H2.89c-.13-1.01-.22-1.93.73-2.67.68-.54,1.23-1.24,1.89-1.94.81.88,1.55,1.68,2.34,2.54,1.7-1.72,3.29-3.33,4.91-4.96,1.07,1.08,2.07,2.09,3.18,3.21Z"/><path class="cls-1" d="m10.29,5.34c0,1.22-.94,2.17-2.15,2.16-1.18,0-2.12-.94-2.12-2.12,0-1.21.96-2.19,2.15-2.18,1.17,0,2.12.96,2.12,2.14Z"/></g></g></svg>