<?xml version="1.0" encoding="UTF-8"?><svg id="_決済" xmlns="http://www.w3.org/2000/svg" viewBox="0 0 27.41 25.7"><defs><style>.cls-1{fill:#fff;}</style></defs><g id="bjJNit"><g><path class="cls-1" d="m8.51,16.34c.14-2.92,1.9-5.35,4.97-6.86,4.6-2.26,10.4-.66,12.87,3.5,1.69,2.85,1.37,6.57-.86,9.03-.52.57-.45,1-.14,1.52.23.37.54.69.82,1.02.42.51.26,1.01-.39,1.1-1.28.18-2.48-.12-3.64-.67-.29-.14-.71-.18-1.02-.09-4.26,1.29-8.91-.17-11.23-3.56-.92-1.34-1.37-2.81-1.37-4.99Zm15.81,8.14c-.17-.42-.27-.65-.35-.88-.32-.85-.33-1.53.41-2.3,2.26-2.35,2.35-5.85.35-8.43-2.43-3.14-7.35-4.07-11.04-2.07-4.65,2.51-5.27,8.25-1.18,11.43,2.57,2,5.48,2.35,8.55,1.3.53-.18.94-.18,1.43.13.51.32,1.11.5,1.84.82Z"/><path class="cls-1" d="m3.27,15.96c.58-.26,1.2-.46,1.74-.78.45-.27.83-.34,1.3-.12.33.15.75.16,1.04.35.21.15.4.51.38.76-.02.17-.42.3-.65.45-.02,0-.05,0-.07,0-.96-.57-1.78.03-2.67.28-.83.24-1.72.28-2.6.32-.22.01-.57-.25-.66-.47-.07-.17.13-.49.27-.71.17-.27.43-.48.61-.75.54-.83.52-1.04-.11-1.79C-1.1,9.98-.46,4.96,3.31,2.02,7.43-1.19,13.94-.5,17.15,3.57c.69.88,1.09,2.01,1.54,3.06.18.41.27.97-.4,1.12-.59.12-.7-.32-.83-.78-.85-2.98-2.93-4.67-5.86-5.42-3.44-.89-7.26.46-9.15,3.2-1.72,2.5-1.57,5.79.56,8.05.8.85.76,1.58.39,2.49-.07.17-.15.34-.22.51.03.05.06.11.09.16Z"/><path class="cls-1" d="m9.44,7.11c-.9,0-1.81,0-2.71,0-.43,0-.81-.11-.82-.63-.01-.52.36-.65.8-.65,1.83,0,3.66,0,5.5,0,.43,0,.82.11.82.63,0,.56-.42.66-.87.66-.9,0-1.81,0-2.71,0Z"/><path class="cls-1" d="m7.89,9.09c.42,0,.85-.07,1.25.03.25.06.59.39.59.59,0,.22-.35.6-.57.61-.88.07-1.77.07-2.64,0-.22-.02-.41-.39-.61-.6.22-.21.41-.55.67-.61.42-.1.88-.03,1.32-.03Z"/><path class="cls-1" d="m17.91,16.24c.95,0,1.9,0,2.85,0,.42,0,.75-.14.76-.61.01-.47-.32-.65-.73-.65-1.88-.01-3.75-.01-5.63,0-.4,0-.75.14-.76.62,0,.53.36.64.8.64.9,0,1.81,0,2.71,0Zm-1.6,3.27c.39,0,.79,0,1.18,0,.44,0,.75-.18.75-.63,0-.44-.28-.65-.73-.64-.81.01-1.63-.04-2.43.03-.24.02-.46.38-.68.58.22.22.4.55.66.62.39.11.83.03,1.25.03Zm4.81-.6c-.37-.31-.62-.65-.8-.63-.26.04-.48.35-.72.55.22.22.4.56.66.63.18.05.46-.28.86-.55Z"/><path class="cls-1" d="m17.91,16.24c-.9,0-1.81,0-2.71,0-.44,0-.8-.11-.8-.64,0-.49.35-.62.76-.62,1.88,0,3.75,0,5.63,0,.41,0,.74.18.73.65-.01.47-.35.61-.76.61-.95,0-1.9,0-2.85,0Z"/><path class="cls-1" d="m16.31,19.51c-.42,0-.86.08-1.25-.03-.26-.07-.44-.41-.66-.62.23-.2.44-.56.68-.58.81-.07,1.62-.02,2.43-.03.45,0,.74.2.73.64,0,.45-.32.63-.75.63-.39,0-.79,0-1.18,0Z"/><path class="cls-1" d="m21.12,18.91c-.4.27-.68.6-.86.55-.26-.07-.44-.41-.66-.63.24-.2.46-.51.72-.55.19-.03.43.32.8.63Z"/></g></g></svg>