<?xml version="1.0" encoding="UTF-8"?><svg id="_決済" xmlns="http://www.w3.org/2000/svg" viewBox="0 0 23 24.67"><defs><style>.cls-1{fill:#fff;}</style></defs><path class="cls-1" d="m14.92,16.31H1.39c-.77,0-1.39-.62-1.39-1.39V1.39C0,.62.62,0,1.39,0h13.53c.77,0,1.39.62,1.39,1.39v13.53c0,.77-.62,1.39-1.39,1.39Zm-12.15-2.78h10.76V2.78H2.78v10.76Z"/><path class="cls-1" d="m21.61,8.36h-6.14v2.78h4.75v10.76h-10.76v-6.01h-2.78v7.39c0,.77.62,1.39,1.39,1.39h13.53c.77,0,1.39-.62,1.39-1.39v-13.53c0-.77-.62-1.39-1.39-1.39Z"/><path class="cls-1" d="m8.69,4.91l2.29,6.7h-1.07l-.49-1.56h-2.43l-.5,1.56h-1.06l2.28-6.7h1Zm-.5,1.24l-.94,3.01h1.89l-.95-3.01Z"/><path class="cls-1" d="m15.19,13.35c.08.02.13.06.13.12,0,.08-.05.12-.2.18-.04.21-.05.26-.1.54-.03.12-.03.13-.05.28.56-.11,1.22-.34,1.67-.58l.37.73c-.74.33-1.32.51-2.14.67-.05.33-.09.66-.1.83q.06,0,.23-.06c.23-.07.66-.13.95-.15.08-.22.12-.33.18-.59l.84.23c.07.02.11.06.11.1,0,.06-.04.1-.16.14l-.08.2c.28.05.56.16.83.31.66.37.97.89.97,1.64,0,1.01-.6,1.83-1.69,2.27-.5.2-.95.31-1.65.41-.1-.43-.15-.57-.28-.84.89-.13,1.29-.24,1.72-.44.65-.32,1-.81,1-1.41,0-.65-.46-1.15-1.16-1.28-.42.78-.75,1.23-1.46,1.96.08.17.12.23.28.46-.27.12-.4.2-.74.48-.11-.16-.13-.19-.22-.38-.65.46-.98.59-1.45.59-.69,0-1.1-.38-1.1-1,0-.86.8-1.77,2.06-2.34.03-.51.03-.53.08-1.03-.17.02-.49.03-.69.03-.31,0-.53-.02-.94-.07l-.03-.85c.32.08.75.12,1.12.12.17,0,.33,0,.63-.03q.04-.33.08-.61c.05-.36.08-.62.08-.77l.9.18Zm-1.24,3.82c-.36.22-.41.25-.57.39-.41.36-.64.76-.64,1.12,0,.18.1.31.26.31.27,0,.67-.21,1.15-.58-.12-.4-.18-.82-.2-1.24Zm.8-.17c0,.28.03.52.08.79q.41-.48.54-.68t.26-.42q.04-.07.08-.13c-.34.04-.69.13-.95.23v.21Z"/><path class="cls-1" d="m14.92,16.31H1.39c-.77,0-1.39-.62-1.39-1.39V1.39C0,.62.62,0,1.39,0h13.53c.77,0,1.39.62,1.39,1.39v13.53c0,.77-.62,1.39-1.39,1.39Zm-12.15-2.78h10.76V2.78H2.78v10.76Z"/><path class="cls-1" d="m21.61,8.36h-6.14v2.78h4.75v10.76h-10.76v-6.01h-2.78v7.39c0,.77.62,1.39,1.39,1.39h13.53c.77,0,1.39-.62,1.39-1.39v-13.53c0-.77-.62-1.39-1.39-1.39Z"/><path class="cls-1" d="m8.69,4.91l2.29,6.7h-1.07l-.49-1.56h-2.43l-.5,1.56h-1.06l2.28-6.7h1Zm-.5,1.24l-.94,3.01h1.89l-.95-3.01Z"/><path class="cls-1" d="m15.19,13.35c.08.02.13.06.13.12,0,.08-.05.12-.2.18-.04.21-.05.26-.1.54-.03.12-.03.13-.05.28.56-.11,1.22-.34,1.67-.58l.37.73c-.74.33-1.32.51-2.14.67-.05.33-.09.66-.1.83q.06,0,.23-.06c.23-.07.66-.13.95-.15.08-.22.12-.33.18-.59l.84.23c.07.02.11.06.11.1,0,.06-.04.1-.16.14l-.08.2c.28.05.56.16.83.31.66.37.97.89.97,1.64,0,1.01-.6,1.83-1.69,2.27-.5.2-.95.31-1.65.41-.1-.43-.15-.57-.28-.84.89-.13,1.29-.24,1.72-.44.65-.32,1-.81,1-1.41,0-.65-.46-1.15-1.16-1.28-.42.78-.75,1.23-1.46,1.96.08.17.12.23.28.46-.27.12-.4.2-.74.48-.11-.16-.13-.19-.22-.38-.65.46-.98.59-1.45.59-.69,0-1.1-.38-1.1-1,0-.86.8-1.77,2.06-2.34.03-.51.03-.53.08-1.03-.17.02-.49.03-.69.03-.31,0-.53-.02-.94-.07l-.03-.85c.32.08.75.12,1.12.12.17,0,.33,0,.63-.03q.04-.33.08-.61c.05-.36.08-.62.08-.77l.9.18Zm-1.24,3.82c-.36.22-.41.25-.57.39-.41.36-.64.76-.64,1.12,0,.18.1.31.26.31.27,0,.67-.21,1.15-.58-.12-.4-.18-.82-.2-1.24Zm.8-.17c0,.28.03.52.08.79q.41-.48.54-.68t.26-.42q.04-.07.08-.13c-.34.04-.69.13-.95.23v.21Z"/></svg>