<?xml version="1.0" encoding="UTF-8"?><svg id="Layer_1" xmlns="http://www.w3.org/2000/svg" viewBox="0 0 13.89 14.91"><defs><style>.cls-1{fill:#3060be;}</style></defs><path class="cls-1" d="m8.31,11.17c-3.08,0-5.58-2.5-5.58-5.58S5.23,0,8.31,0s5.58,2.5,5.58,5.58-2.5,5.58-5.58,5.58Zm0-9.45c-2.13,0-3.86,1.73-3.86,3.87s1.73,3.86,3.86,3.86,3.87-1.73,3.87-3.86-1.73-3.87-3.87-3.87Z"/><path class="cls-1" d="m.86,14.91c-.21,0-.43-.08-.6-.24-.34-.33-.35-.87-.02-1.21l4.44-4.6c.33-.34.87-.35,1.21-.02.34.33.35.87.02,1.21L1.48,14.64c-.17.17-.39.26-.62.26Z"/></svg>