<?xml version="1.0" encoding="UTF-8"?><svg id="_決済" xmlns="http://www.w3.org/2000/svg" viewBox="0 0 25 19.86"><defs><style>.cls-1{fill:#fff;}</style></defs><path class="cls-1" d="m20.04,19.86H4.96c-2.74,0-4.96-2.23-4.96-4.96V4.96C0,2.23,2.23,0,4.96,0h15.08c2.74,0,4.96,2.23,4.96,4.96v9.94c0,2.74-2.23,4.96-4.96,4.96ZM4.96,1.37c-1.98,0-3.59,1.61-3.59,3.59v9.94c0,1.98,1.61,3.59,3.59,3.59h15.08c1.98,0,3.59-1.61,3.59-3.59V4.96c0-1.98-1.61-3.59-3.59-3.59H4.96Z"/><path class="cls-1" d="m19.18,7.19H6.16c-.38,0-.68-.31-.68-.68s.31-.68.68-.68h13.02c.38,0,.68.31.68.68s-.31.68-.68.68Z"/><path class="cls-1" d="m19.18,10.62H6.16c-.38,0-.68-.31-.68-.68s.31-.68.68-.68h13.02c.38,0,.68.31.68.68s-.31.68-.68.68Z"/><path class="cls-1" d="m15.07,14.04H6.16c-.38,0-.68-.31-.68-.68s.31-.68.68-.68h8.91c.38,0,.68.31.68.68s-.31.68-.68.68Z"/></svg>